<svg enable-background="new 0 0 445 273" viewBox="0 0 445 273" xmlns="http://www.w3.org/2000/svg"><path d="m222.5-2.5h274.7l-137.3 137.5-137.4 137.5-137.4-137.5-137.3-137.5z" fill="#233d44"/><path d="m73.3 43.1c-3.9.3-7 3.4-7.5 7.1-.1.4-.1 4.7-.1 13.9v13.3h5 5v-5.5-5.5h16.8 16.8v-4.4-4.4h-16.8-16.7v-2.3c0-2.1 0-2.3.1-2.6.1-.2.2-.4.4-.4l.3-.1h16.4 16.3v-4.4-4.4h-17.7c-9.7-.3-17.9-.3-18.3-.3z" fill="#bfe5e9"/><path d="m120 56.4c0 9.1 0 13.6.1 14 .3 2.3 1.6 4.4 3.6 5.7.6.4 1.5.8 2.1 1 1.3.4.4.4 19.4.4h17.6v-17.2-17.2h-5-5v12.8 12.8h-10.9c-10.9 0-10.9 0-11.2-.1-.1-.1-.3-.2-.4-.4s-.1-.2-.2-12.6v-12.5h-5-5z" fill="#bfe5e9"/><path d="m184.3 43.1c-4.9.4-8.8 3.8-9.9 8.6-.2 1-.2 3.1 0 4.2.9 4.4 4.2 7.8 8.6 8.7.7.1.9.1 11.6.2l10.9.1.4.1c.9.4 1.3 1.6.9 2.6-.2.4-.7.9-1.1 1-.3.1-1.6.1-15.2.1h-14.8v4.4 4.4h15.6c16.8 0 16.2 0 17.6-.4 2.8-.7 5.5-2.8 6.9-5.6 1.5-3 1.5-6.5.1-9.6-.9-1.8-2.5-3.6-4.3-4.7-.7-.4-1.5-.8-2.4-1-1.5-.4-1.2-.4-12.6-.4-11.5 0-10.9 0-11.5-.4-.4-.4-.7-.8-.7-1.3-.1-.6.1-1 .5-1.5.6-.6-1-.6 15.7-.6h14.9v-4.4-4.4h-15.2c-8.4-.1-15.6-.1-16-.1z" fill="#bfe5e9"/><path d="m228.3 43.1v4.4 4.5h8.2 8.2v8.3 8.3h-8.2-8.2v4.4 4.4h21.4 21.3v-4.4-4.4h-8.2-8.2v-8.3-8.3h8.2 8.2v-4.4-4.4h-21.3c-17.1-.1-21.4-.1-21.4-.1z" fill="#bfe5e9"/><path d="m289.5 43.1c-3.2.3-6.1 2.5-7.1 5.5-.4 1.2-.4.9-.4 11.6 0 10.9 0 10.5.4 11.9 1 2.8 3.4 4.8 6.4 5.3 1 .1 28.7.1 29.6 0 1.6-.3 2.9-.9 4.1-1.9 1.3-1.2 2.3-2.8 2.6-4.6.1-.7.1-1.2.1-10.5 0-10.9 0-10.5-.4-11.8-.9-2.8-3.2-4.7-6.2-5.4-.5-.1-1.7-.1-14.5-.1-7.6 0-14.3 0-14.6 0zm25.2 9c.1.1.4.2.4.4.1.2.1.4.1 7.7 0 8.2.1 7.8-.4 8.2l-.3.2h-10.8c-10.8 0-10.8 0-11.1-.1-.1-.1-.4-.3-.4-.4l-.1-.3v-7.4-7.4l.1-.3c.1-.1.3-.4.4-.5l.2-.1h10.8c10.5-.1 10.9-.1 11.1 0z" fill="#bfe5e9"/><path d="m336.4 60.3v17.2h5 5v-12.8-12.7h10.9 10.9l.2.1c.1.1.3.3.4.4.1.2.1.7.1 12.6v12.3h5.1 5.1v-13.5c0-14.9 0-13.9-.4-15.2-.7-2-2.3-3.9-4.3-4.8-.9-.4-1.8-.7-2.8-.7-.5-.1-8-.1-18-.1h-17.1v17.3h-.1z" fill="#bfe5e9"/><path d="m122.8 134.1h20 45.3l.8.4c.5.3.9.7 1.2 1.2.4.8.4 1.2.4 7.1v7h-46.5-5.5l24.9 24.9h27v14.7 12.4l28.1 28.1v-62c0-25.7-.1-37.4-.2-38.7-1.3-10.7-10.1-19.1-20.9-19.9-1.1-.1-24.1-.1-51-.1h-48.6z" fill="#bfe5e9"/><path d="m321.7 134.1h-20-45.3l-.8.4c-.5.3-.9.7-1.2 1.2-.4.8-.4 1.2-.4 7.1v7h46.5 5.4l-24.9 24.9h-27v14.7 12.4l-28.3 28.2v-62c0-25.7.1-37.4.2-38.7 1.3-10.7 10.1-19.1 20.9-19.9 1.1-.1 24.1-.1 51-.1h48.8z" fill="#bfe5e9"/><g fill="#d56134"><path d="m113.8 87.5v11.7h-4.6v-6l-5.8 6h-5.5l-5.8-6v6h-4.6v-11.7h4.5l8.6 8.9 8.6-8.9z"/><path d="m139 97.5h-8.5l-1.2 1.7h-5l7.8-11.7h5.1l7.9 11.7h-5zm-1.8-2.8-2.5-3.8-2.5 3.8z"/><path d="m177 87.5v11.7h-4.6l-12-7v7h-4.6v-11.7h4.6l12 7.1v-7.1z"/><path d="m202.2 97.5h-8.5l-1.2 1.7h-5l7.8-11.7h5.1l7.9 11.7h-5zm-1.8-2.8-2.5-3.8-2.5 3.8z"/><path d="m239.7 99.2h-3.6c0-.9.3-2.1.7-3.3-1.2 2.2-4.1 3.6-8.4 3.6-6.3 0-10.8-1.3-10.8-6.1s4.5-6.3 11.4-6.3c6.7 0 10.3 2 10.4 5.1h-4.7c-.4-.8-1.7-1.6-5.7-1.6-4.7 0-6.6.8-6.6 2.8 0 1.8 2 2.6 7 2.6 3.4 0 5.3-.5 6.6-1h-6v-1.9h9.7z"/><path d="m269.9 95.8v3.5h-18.4v-11.7h18.4v3.5h-13.9v1.5h11.3v1.8h-11.3v1.5z"/><path d="m302.7 93.4c0 3.1-2 5.8-8.2 5.8h-13.1v-11.7h13.1c6.6 0 8.2 2.8 8.2 5.9zm-4.7 0c0-1.5-.9-2.2-3.7-2.2h-8.4v4.4h8.4c2.7 0 3.7-.8 3.7-2.2z"/><path d="m334.2 87.5v11.7h-4.6v-11.7z"/><path d="m365.1 91h-7.9v8.2h-4.6v-8.2h-7.9v-3.5h20.4z"/></g></svg>